<?xml version="1.0" encoding="UTF-8" standalone="no"?>
<!DOCTYPE svg PUBLIC "-//W3C//DTD SVG 1.1//EN"
 "http://www.w3.org/Graphics/SVG/1.1/DTD/svg11.dtd">
<!-- Generated by graphviz version 2.38.0 (20140413.2041)
 -->
<!-- Title: Plugin architecture () Pages: 1 -->
<svg width="720pt" height="510pt"
 viewBox="0.00 0.00 720.00 509.99" xmlns="http://www.w3.org/2000/svg" xmlns:xlink="http://www.w3.org/1999/xlink">
<g id="graph0" class="graph" transform="scale(0.930646 0.930646) rotate(0) translate(4 544)">
<title>Plugin architecture ()</title>
<polygon fill="white" stroke="none" points="-4,4 -4,-544 769.656,-544 769.656,4 -4,4"/>
<!-- LAnnotate -->
<g id="node1" class="node"><title>LAnnotate</title>
<g id="a_node1"><a xlink:href="LAnnotate.html" xlink:title="LAnnotate">
<ellipse fill="darkturquoise" stroke="darkturquoise" cx="340.251" cy="-515" rx="48.1917" ry="18"/>
<text text-anchor="middle" x="340.251" y="-511.3" font-family="Times,serif" font-size="14.00">LAnnotate</text>
</a>
</g>
</g>
<!-- Options -->
<g id="node2" class="node"><title>Options</title>
<g id="a_node2"><a xlink:href="Options.html" xlink:title="Options">
<ellipse fill="darkturquoise" stroke="darkturquoise" cx="290.251" cy="-25" rx="38.1938" ry="18"/>
<text text-anchor="middle" x="290.251" y="-21.3" font-family="Times,serif" font-size="14.00">Options</text>
</a>
</g>
</g>
<!-- Utils -->
<g id="node3" class="node"><title>Utils</title>
<g id="a_node3"><a xlink:href="Utils.html" xlink:title="Utils">
<ellipse fill="darkturquoise" stroke="darkturquoise" cx="468.251" cy="-221" rx="27.8951" ry="18"/>
<text text-anchor="middle" x="468.251" y="-217.3" font-family="Times,serif" font-size="14.00">Utils</text>
</a>
</g>
</g>
<!-- Utils&#45;&gt;Options -->
<g id="edge1" class="edge"><title>Utils&#45;&gt;Options</title>
<path fill="none" stroke="black" d="M454.579,-205.099C423.746,-171.494 348.606,-89.6002 311.583,-49.2498"/>
<polygon fill="black" stroke="black" points="314.051,-46.7624 304.711,-41.7602 308.893,-51.4949 314.051,-46.7624"/>
</g>
<!-- Ast_const -->
<g id="node4" class="node"><title>Ast_const</title>
<g id="a_node4"><a xlink:href="Ast_const.html" xlink:title="Ast_const">
<ellipse fill="darkturquoise" stroke="darkturquoise" cx="273.251" cy="-123" rx="46.2923" ry="18"/>
<text text-anchor="middle" x="273.251" y="-119.3" font-family="Times,serif" font-size="14.00">Ast_const</text>
</a>
</g>
</g>
<!-- Bes -->
<g id="node5" class="node"><title>Bes</title>
<g id="a_node5"><a xlink:href="Bes.html" xlink:title="Bes">
<ellipse fill="darkturquoise" stroke="darkturquoise" cx="116.251" cy="-123" rx="27" ry="18"/>
<text text-anchor="middle" x="116.251" y="-119.3" font-family="Times,serif" font-size="14.00">Bes</text>
</a>
</g>
</g>
<!-- Bes&#45;&gt;Options -->
<g id="edge2" class="edge"><title>Bes&#45;&gt;Options</title>
<path fill="none" stroke="black" d="M136.552,-110.8C166.177,-94.4546 221.591,-63.8816 257.161,-44.2568"/>
<polygon fill="black" stroke="black" points="259.123,-47.1713 266.188,-39.2759 255.742,-41.0422 259.123,-47.1713"/>
</g>
<!-- Simplify -->
<g id="node6" class="node"><title>Simplify</title>
<g id="a_node6"><a xlink:href="Simplify.html" xlink:title="Simplify">
<ellipse fill="darkturquoise" stroke="darkturquoise" cx="102.251" cy="-221" rx="42.4939" ry="18"/>
<text text-anchor="middle" x="102.251" y="-217.3" font-family="Times,serif" font-size="14.00">Simplify</text>
</a>
</g>
</g>
<!-- Simplify&#45;&gt;Options -->
<g id="edge5" class="edge"><title>Simplify&#45;&gt;Options</title>
<path fill="none" stroke="black" d="M117.636,-204.124C150.85,-169.85 229.383,-88.8101 268.011,-48.9499"/>
<polygon fill="black" stroke="black" points="270.733,-51.17 275.179,-41.553 265.706,-46.2986 270.733,-51.17"/>
</g>
<!-- Simplify&#45;&gt;Ast_const -->
<g id="edge3" class="edge"><title>Simplify&#45;&gt;Ast_const</title>
<path fill="none" stroke="black" d="M126.751,-206.246C156.211,-189.706 205.833,-161.849 239.055,-143.198"/>
<polygon fill="black" stroke="black" points="240.954,-146.146 247.96,-138.198 237.527,-140.042 240.954,-146.146"/>
</g>
<!-- Simplify&#45;&gt;Bes -->
<g id="edge4" class="edge"><title>Simplify&#45;&gt;Bes</title>
<path fill="none" stroke="black" d="M104.754,-202.837C106.844,-188.503 109.863,-167.807 112.282,-151.216"/>
<polygon fill="black" stroke="black" points="115.79,-151.415 113.77,-141.014 108.863,-150.405 115.79,-151.415"/>
</g>
<!-- Annotators -->
<g id="node7" class="node"><title>Annotators</title>
<g id="a_node7"><a xlink:href="Annotators.html" xlink:title="Annotators">
<ellipse fill="darkturquoise" stroke="darkturquoise" cx="212.251" cy="-319" rx="50.0912" ry="18"/>
<text text-anchor="middle" x="212.251" y="-315.3" font-family="Times,serif" font-size="14.00">Annotators</text>
</a>
</g>
</g>
<!-- Annotators&#45;&gt;Options -->
<g id="edge7" class="edge"><title>Annotators&#45;&gt;Options</title>
<path fill="none" stroke="black" d="M168.763,-309.938C130.413,-300.278 76.7758,-279.957 51.251,-239 42.7884,-225.421 48.9572,-218.835 51.251,-203 57.7627,-158.047 49.311,-138.255 80.251,-105 123.139,-58.9025 195.589,-39.5223 243.171,-31.4983"/>
<polygon fill="black" stroke="black" points="243.891,-34.928 253.222,-29.9093 242.798,-28.0138 243.891,-34.928"/>
</g>
<!-- Annotators&#45;&gt;Utils -->
<g id="edge9" class="edge"><title>Annotators&#45;&gt;Utils</title>
<path fill="none" stroke="black" d="M245.719,-305.45C294.915,-287.001 386.207,-252.766 435.178,-234.402"/>
<polygon fill="black" stroke="black" points="436.534,-237.632 444.669,-230.843 434.077,-231.077 436.534,-237.632"/>
</g>
<!-- Annotators&#45;&gt;Ast_const -->
<g id="edge6" class="edge"><title>Annotators&#45;&gt;Ast_const</title>
<path fill="none" stroke="black" d="M217.664,-300.784C228.34,-266.832 252.172,-191.037 264.886,-150.605"/>
<polygon fill="black" stroke="black" points="268.276,-151.49 267.937,-140.901 261.598,-149.39 268.276,-151.49"/>
</g>
<!-- Annotators&#45;&gt;Simplify -->
<g id="edge8" class="edge"><title>Annotators&#45;&gt;Simplify</title>
<path fill="none" stroke="black" d="M194.087,-302.148C175.986,-286.351 148.035,-261.957 127.722,-244.229"/>
<polygon fill="black" stroke="black" points="129.913,-241.496 120.077,-237.557 125.31,-246.77 129.913,-241.496"/>
</g>
<!-- Wm -->
<g id="node8" class="node"><title>Wm</title>
<g id="a_node8"><a xlink:href="Wm.html" xlink:title="Wm">
<ellipse fill="darkturquoise" stroke="darkturquoise" cx="293.251" cy="-417" rx="27" ry="18"/>
<text text-anchor="middle" x="293.251" y="-413.3" font-family="Times,serif" font-size="14.00">Wm</text>
</a>
</g>
</g>
<!-- Wm&#45;&gt;Ast_const -->
<g id="edge10" class="edge"><title>Wm&#45;&gt;Ast_const</title>
<path fill="none" stroke="black" d="M292.06,-398.609C288.711,-349.717 279.194,-210.762 275.129,-151.416"/>
<polygon fill="black" stroke="black" points="278.611,-151.038 274.436,-141.3 271.628,-151.516 278.611,-151.038"/>
</g>
<!-- Wm&#45;&gt;Annotators -->
<g id="edge11" class="edge"><title>Wm&#45;&gt;Annotators</title>
<path fill="none" stroke="black" d="M280.595,-401C267.784,-385.817 247.771,-362.097 232.705,-344.242"/>
<polygon fill="black" stroke="black" points="235.299,-341.889 226.175,-336.503 229.949,-346.403 235.299,-341.889"/>
</g>
<!-- Logical -->
<g id="node9" class="node"><title>Logical</title>
<g id="a_node9"><a xlink:href="Logical.html" xlink:title="Logical">
<ellipse fill="darkturquoise" stroke="darkturquoise" cx="381.251" cy="-417" rx="37.8943" ry="18"/>
<text text-anchor="middle" x="381.251" y="-413.3" font-family="Times,serif" font-size="14.00">Logical</text>
</a>
</g>
</g>
<!-- Logical&#45;&gt;Options -->
<g id="edge13" class="edge"><title>Logical&#45;&gt;Options</title>
<path fill="none" stroke="black" d="M400.884,-401.575C444.079,-367.961 540.79,-281.32 505.251,-203 469.234,-123.628 377.322,-68.268 326.1,-42.4631"/>
<polygon fill="black" stroke="black" points="327.549,-39.2751 317.032,-37.9896 324.452,-45.5527 327.549,-39.2751"/>
</g>
<!-- Logical&#45;&gt;Utils -->
<g id="edge12" class="edge"><title>Logical&#45;&gt;Utils</title>
<path fill="none" stroke="black" d="M388.819,-399.123C404.096,-365.058 438.698,-287.9 456.772,-247.598"/>
<polygon fill="black" stroke="black" points="459.987,-248.982 460.885,-238.425 453.599,-246.118 459.987,-248.982"/>
</g>
<!-- Logical&#45;&gt;Ast_const -->
<g id="edge14" class="edge"><title>Logical&#45;&gt;Ast_const</title>
<path fill="none" stroke="black" d="M374.978,-399.039C356.971,-350.353 305.014,-209.879 283.142,-150.743"/>
<polygon fill="black" stroke="black" points="286.293,-149.173 279.542,-141.008 279.728,-151.601 286.293,-149.173"/>
</g>
<!-- Logical&#45;&gt;Annotators -->
<g id="edge15" class="edge"><title>Logical&#45;&gt;Annotators</title>
<path fill="none" stroke="black" d="M357.752,-402.652C328.902,-386.263 279.739,-358.336 246.638,-339.533"/>
<polygon fill="black" stroke="black" points="248.182,-336.385 237.758,-334.489 244.724,-342.472 248.182,-336.385"/>
</g>
<!-- Partition -->
<g id="node10" class="node"><title>Partition</title>
<g id="a_node10"><a xlink:href="Partition.html" xlink:title="Partition">
<ellipse fill="darkturquoise" stroke="darkturquoise" cx="484.251" cy="-417" rx="40.8928" ry="18"/>
<text text-anchor="middle" x="484.251" y="-413.3" font-family="Times,serif" font-size="14.00">Partition</text>
</a>
</g>
</g>
<!-- Partition&#45;&gt;Options -->
<g id="edge17" class="edge"><title>Partition&#45;&gt;Options</title>
<path fill="none" stroke="black" d="M492.486,-399.131C509.132,-362.719 543.466,-274.285 522.251,-203 507.412,-153.14 497.5,-139.142 458.251,-105 421.13,-72.7101 368.546,-50.8393 332.137,-38.443"/>
<polygon fill="black" stroke="black" points="332.916,-35.0143 322.323,-35.197 330.718,-41.6603 332.916,-35.0143"/>
</g>
<!-- Partition&#45;&gt;Utils -->
<g id="edge18" class="edge"><title>Partition&#45;&gt;Utils</title>
<path fill="none" stroke="black" d="M482.831,-398.784C480.044,-364.989 473.838,-289.738 470.492,-249.169"/>
<polygon fill="black" stroke="black" points="473.978,-248.856 469.668,-239.178 467.002,-249.432 473.978,-248.856"/>
</g>
<!-- Partition&#45;&gt;Ast_const -->
<g id="edge16" class="edge"><title>Partition&#45;&gt;Ast_const</title>
<path fill="none" stroke="black" d="M472.302,-399.464C437.06,-350.693 333.383,-207.216 291.306,-148.986"/>
<polygon fill="black" stroke="black" points="294.024,-146.772 285.33,-140.716 288.35,-150.872 294.024,-146.772"/>
</g>
<!-- Partition&#45;&gt;Annotators -->
<g id="edge19" class="edge"><title>Partition&#45;&gt;Annotators</title>
<path fill="none" stroke="black" d="M453.314,-405.081C404.976,-388.021 311.362,-354.98 256.093,-335.474"/>
<polygon fill="black" stroke="black" points="257.166,-332.141 246.571,-332.113 254.836,-338.742 257.166,-332.141"/>
</g>
<!-- Dataflow -->
<g id="node11" class="node"><title>Dataflow</title>
<g id="a_node11"><a xlink:href="Dataflow.html" xlink:title="Dataflow">
<ellipse fill="darkturquoise" stroke="darkturquoise" cx="162.251" cy="-417" rx="43.5923" ry="18"/>
<text text-anchor="middle" x="162.251" y="-413.3" font-family="Times,serif" font-size="14.00">Dataflow</text>
</a>
</g>
</g>
<!-- Dataflow&#45;&gt;Options -->
<g id="edge21" class="edge"><title>Dataflow&#45;&gt;Options</title>
<path fill="none" stroke="black" d="M147.075,-399.91C102.331,-350.527 -21.2565,-198.807 55.251,-105 100.87,-49.0656 187.559,-32.5127 241.938,-27.7485"/>
<polygon fill="black" stroke="black" points="242.33,-31.2287 252.03,-26.9669 241.79,-24.2496 242.33,-31.2287"/>
</g>
<!-- Dataflow&#45;&gt;Utils -->
<g id="edge20" class="edge"><title>Dataflow&#45;&gt;Utils</title>
<path fill="none" stroke="black" d="M185.251,-401.418C240.512,-366.383 380.602,-277.568 440.451,-239.625"/>
<polygon fill="black" stroke="black" points="442.44,-242.508 449.012,-234.198 438.692,-236.596 442.44,-242.508"/>
</g>
<!-- Dataflow&#45;&gt;Ast_const -->
<g id="edge22" class="edge"><title>Dataflow&#45;&gt;Ast_const</title>
<path fill="none" stroke="black" d="M157.029,-398.809C150.947,-375.94 142.965,-334.503 153.251,-301 158.474,-283.99 223.176,-193.186 255.34,-148.658"/>
<polygon fill="black" stroke="black" points="258.285,-150.558 261.312,-140.405 252.614,-146.455 258.285,-150.558"/>
</g>
<!-- Dataflow&#45;&gt;Annotators -->
<g id="edge23" class="edge"><title>Dataflow&#45;&gt;Annotators</title>
<path fill="none" stroke="black" d="M170.96,-399.278C178.656,-384.502 190,-362.721 198.852,-345.726"/>
<polygon fill="black" stroke="black" points="201.958,-347.338 203.474,-336.852 195.75,-344.105 201.958,-347.338"/>
</g>
<!-- Function -->
<g id="node12" class="node"><title>Function</title>
<g id="a_node12"><a xlink:href="Function.html" xlink:title="Function">
<ellipse fill="darkturquoise" stroke="darkturquoise" cx="683.251" cy="-417" rx="42.4939" ry="18"/>
<text text-anchor="middle" x="683.251" y="-413.3" font-family="Times,serif" font-size="14.00">Function</text>
</a>
</g>
</g>
<!-- Function&#45;&gt;Options -->
<g id="edge25" class="edge"><title>Function&#45;&gt;Options</title>
<path fill="none" stroke="black" d="M684.734,-398.758C686.023,-375.474 685.812,-333.19 671.251,-301 622.382,-192.965 588.068,-172.018 490.251,-105 441.21,-71.4007 375.798,-49.0348 333.354,-36.9272"/>
<polygon fill="black" stroke="black" points="334.182,-33.5245 323.609,-34.2125 332.303,-40.2677 334.182,-33.5245"/>
</g>
<!-- Function&#45;&gt;Utils -->
<g id="edge24" class="edge"><title>Function&#45;&gt;Utils</title>
<path fill="none" stroke="black" d="M677.659,-398.769C668.987,-374.34 650.215,-329.452 621.251,-301 587.332,-267.681 536.504,-245.27 502.869,-233.073"/>
<polygon fill="black" stroke="black" points="503.615,-229.626 493.02,-229.616 501.296,-236.231 503.615,-229.626"/>
</g>
<!-- Function&#45;&gt;Ast_const -->
<g id="edge26" class="edge"><title>Function&#45;&gt;Ast_const</title>
<path fill="none" stroke="black" d="M681.601,-398.821C678.558,-374.853 670.218,-330.957 648.251,-301 569.378,-193.438 408.254,-148.858 325.245,-132.435"/>
<polygon fill="black" stroke="black" points="325.758,-128.97 315.277,-130.525 324.44,-135.845 325.758,-128.97"/>
</g>
<!-- Function&#45;&gt;Annotators -->
<g id="edge27" class="edge"><title>Function&#45;&gt;Annotators</title>
<path fill="none" stroke="black" d="M645.899,-408.387C562.451,-391.378 360.696,-350.256 264.698,-330.69"/>
<polygon fill="black" stroke="black" points="265.135,-327.207 254.637,-328.639 263.736,-334.066 265.135,-327.207"/>
</g>
<!-- Assertion -->
<g id="node13" class="node"><title>Assertion</title>
<g id="a_node13"><a xlink:href="Assertion.html" xlink:title="Assertion">
<ellipse fill="darkturquoise" stroke="darkturquoise" cx="52.251" cy="-417" rx="44.393" ry="18"/>
<text text-anchor="middle" x="52.251" y="-413.3" font-family="Times,serif" font-size="14.00">Assertion</text>
</a>
</g>
</g>
<!-- Assertion&#45;&gt;Options -->
<g id="edge28" class="edge"><title>Assertion&#45;&gt;Options</title>
<path fill="none" stroke="black" d="M44.2797,-398.962C21.8237,-348.179 -35.9677,-195.753 33.251,-105 58.9796,-71.2669 177.746,-45.6082 244.454,-33.565"/>
<polygon fill="black" stroke="black" points="245.455,-36.9421 254.69,-31.7499 244.233,-30.0496 245.455,-36.9421"/>
</g>
<!-- Assertion&#45;&gt;Ast_const -->
<g id="edge29" class="edge"><title>Assertion&#45;&gt;Ast_const</title>
<path fill="none" stroke="black" d="M61.2486,-399.341C81.6703,-362.219 134.129,-270.656 190.251,-203 207.387,-182.342 229.516,-161.515 246.614,-146.436"/>
<polygon fill="black" stroke="black" points="249.314,-148.726 254.56,-139.521 244.718,-143.446 249.314,-148.726"/>
</g>
<!-- Assertion&#45;&gt;Annotators -->
<g id="edge30" class="edge"><title>Assertion&#45;&gt;Annotators</title>
<path fill="none" stroke="black" d="M76.2046,-401.628C103.499,-385.251 148.286,-358.379 178.965,-339.972"/>
<polygon fill="black" stroke="black" points="180.833,-342.933 187.607,-334.786 177.231,-336.93 180.833,-342.933"/>
</g>
<!-- Register -->
<g id="node14" class="node"><title>Register</title>
<g id="a_node14"><a xlink:href="Register.html" xlink:title="Register">
<ellipse fill="darkturquoise" stroke="darkturquoise" cx="450.251" cy="-515" rx="40.0939" ry="18"/>
<text text-anchor="middle" x="450.251" y="-511.3" font-family="Times,serif" font-size="14.00">Register</text>
</a>
</g>
</g>
<!-- Register&#45;&gt;Options -->
<g id="edge33" class="edge"><title>Register&#45;&gt;Options</title>
<path fill="none" stroke="black" d="M490.773,-514.6C552.147,-513.224 668.473,-501.307 734.251,-435 771.532,-397.419 765.251,-372.936 765.251,-320 765.251,-320 765.251,-320 765.251,-220 765.251,-127.71 454.052,-57.7221 335.434,-34.3971"/>
<polygon fill="black" stroke="black" points="336.05,-30.9514 325.565,-32.4771 334.713,-37.8225 336.05,-30.9514"/>
</g>
<!-- Register&#45;&gt;Utils -->
<g id="edge32" class="edge"><title>Register&#45;&gt;Utils</title>
<path fill="none" stroke="black" d="M473.409,-500.113C493.742,-486.436 521.938,-463.483 534.251,-435 562.957,-368.596 514.589,-285.643 486.371,-245.683"/>
<polygon fill="black" stroke="black" points="489.058,-243.425 480.357,-237.38 483.389,-247.531 489.058,-243.425"/>
</g>
<!-- Register&#45;&gt;Annotators -->
<g id="edge34" class="edge"><title>Register&#45;&gt;Annotators</title>
<path fill="none" stroke="black" d="M419.977,-503.104C368.73,-484.44 269.253,-447.19 257.251,-435 233.454,-410.831 221.884,-372.615 216.517,-346.944"/>
<polygon fill="black" stroke="black" points="219.953,-346.281 214.636,-337.118 213.078,-347.597 219.953,-346.281"/>
</g>
<!-- Register&#45;&gt;Wm -->
<g id="edge31" class="edge"><title>Register&#45;&gt;Wm</title>
<path fill="none" stroke="black" d="M427.422,-500.041C399.367,-482.886 351.768,-453.781 321.454,-435.245"/>
<polygon fill="black" stroke="black" points="323,-432.088 312.642,-429.857 319.348,-438.06 323,-432.088"/>
</g>
</g>
</svg>
